<svg width="15" height="21" viewBox="0 0 15 21" fill="none" xmlns="http://www.w3.org/2000/svg">
<path d="M7.50257 1.12095C3.98971 1.12095 1.13965 3.83359 1.13965 7.17456C1.13965 11.0188 5.38159 17.1109 6.93918 19.2151C7.00384 19.3039 7.08858 19.3762 7.18649 19.426C7.2844 19.4758 7.3927 19.5018 7.50257 19.5018C7.61243 19.5018 7.72074 19.4758 7.81865 19.426C7.91656 19.3762 8.0013 19.3039 8.06595 19.2151C9.62354 17.1118 13.8655 11.0219 13.8655 7.17456C13.8655 3.83359 11.0154 1.12095 7.50257 1.12095Z" stroke="#002347" stroke-width="1.19072" stroke-linecap="round" stroke-linejoin="round"/>
<path d="M7.50257 9.60484C8.67395 9.60484 9.62354 8.65525 9.62354 7.48387C9.62354 6.31249 8.67395 5.3629 7.50257 5.3629C6.33119 5.3629 5.38159 6.31249 5.38159 7.48387C5.38159 8.65525 6.33119 9.60484 7.50257 9.60484Z" stroke="#002347" stroke-width="1.19072" stroke-linecap="round" stroke-linejoin="round"/>
</svg>
