<svg width="13" height="17" viewBox="0 0 13 17" fill="none" xmlns="http://www.w3.org/2000/svg">
<path d="M6.5 0.78125C3.5498 0.78125 1.15625 3.05939 1.15625 5.86523C1.15625 9.09375 4.71875 14.21 6.02686 15.9772C6.08115 16.0518 6.15232 16.1125 6.23455 16.1543C6.31678 16.1962 6.40773 16.218 6.5 16.218C6.59227 16.218 6.68322 16.1962 6.76545 16.1543C6.84768 16.1125 6.91885 16.0518 6.97314 15.9772C8.28125 14.2108 11.8438 9.09635 11.8438 5.86523C11.8438 3.05939 9.4502 0.78125 6.5 0.78125Z" stroke="white" stroke-linecap="round" stroke-linejoin="round"/>
<path d="M6.5 7.90625C7.48376 7.90625 8.28125 7.10876 8.28125 6.125C8.28125 5.14124 7.48376 4.34375 6.5 4.34375C5.51624 4.34375 4.71875 5.14124 4.71875 6.125C4.71875 7.10876 5.51624 7.90625 6.5 7.90625Z" stroke="white" stroke-linecap="round" stroke-linejoin="round"/>
</svg>
