<svg width="20" height="16" viewBox="0 0 20 16" fill="none" xmlns="http://www.w3.org/2000/svg">
<path d="M18.2422 0.72168H1.57207C1.25627 0.72168 0.953405 0.84713 0.730102 1.07043C0.506798 1.29374 0.381348 1.5966 0.381348 1.9124V13.8196C0.381348 14.1354 0.506798 14.4383 0.730102 14.6616C0.953405 14.8849 1.25627 15.0103 1.57207 15.0103H18.2422C18.558 15.0103 18.8608 14.8849 19.0841 14.6616C19.3074 14.4383 19.4329 14.1354 19.4329 13.8196V1.9124C19.4329 1.5966 19.3074 1.29374 19.0841 1.07043C18.8608 0.84713 18.558 0.72168 18.2422 0.72168ZM17.3253 13.8196H2.56037L6.72789 9.50921L5.87057 8.68165L1.57207 13.129V2.81735L8.9724 10.182C9.1955 10.4037 9.49729 10.5282 9.81186 10.5282C10.1264 10.5282 10.4282 10.4037 10.6513 10.182L18.2422 2.63279V13.0516L13.8603 8.66975L13.0209 9.50921L17.3253 13.8196ZM2.35199 1.9124H17.2777L9.81186 9.33655L2.35199 1.9124Z" fill="#002347"/>
</svg>
