<svg width="14" height="14" viewBox="0 0 14 14" fill="none" xmlns="http://www.w3.org/2000/svg">
<path d="M12.831 13.6667C5.72184 13.6767 0.326004 8.21671 0.333504 1.16921C0.333504 0.708374 0.706837 0.333374 1.16684 0.333374H3.36684C3.77934 0.333374 4.13017 0.636707 4.191 1.04504C4.33609 2.02425 4.62094 2.97758 5.03684 3.87587L5.12267 4.06087C5.18033 4.18537 5.19273 4.32608 5.15774 4.45873C5.12275 4.59139 5.04256 4.70768 4.931 4.78754C4.24934 5.27421 3.98934 6.25337 4.52017 7.01671C5.18849 7.97781 6.02262 8.81223 6.9835 9.48087C7.74767 10.0109 8.72684 9.75087 9.21267 9.07004C9.29245 8.95815 9.40883 8.87766 9.54168 8.84251C9.67453 8.80735 9.81549 8.81975 9.94017 8.87754L10.1243 8.96254C11.0227 9.37921 11.976 9.66421 12.9552 9.80921C13.3635 9.87004 13.6668 10.2209 13.6668 10.6342V12.8334C13.6668 12.9429 13.6453 13.0513 13.6033 13.1525C13.5614 13.2536 13.4999 13.3455 13.4225 13.4229C13.345 13.5003 13.253 13.5617 13.1518 13.6035C13.0506 13.6453 12.9422 13.6668 12.8327 13.6667H12.831Z" fill="white"/>
</svg>
