<svg width="17" height="16" viewBox="0 0 17 16" fill="none" xmlns="http://www.w3.org/2000/svg">
<path d="M15.8503 15.9948C7.38525 16.0067 0.960317 9.50539 0.969248 1.11377C0.969248 0.565051 1.41378 0.11853 1.96152 0.11853H4.5811C5.07228 0.11853 5.49002 0.479716 5.56246 0.965927C5.73521 2.1319 6.07439 3.26704 6.56961 4.33666L6.67181 4.55694C6.74047 4.70518 6.75523 4.87273 6.71357 5.03069C6.67191 5.18865 6.57642 5.32711 6.44359 5.4222C5.63192 6.00169 5.32233 7.1676 5.9544 8.07652C6.75019 9.22093 7.74341 10.2145 8.88755 11.0107C9.79746 11.6417 10.9634 11.3322 11.5419 10.5215C11.6369 10.3882 11.7754 10.2924 11.9336 10.2505C12.0918 10.2087 12.2597 10.2234 12.4081 10.2923L12.6274 10.3935C13.6971 10.8896 14.8322 11.229 15.9981 11.4016C16.4844 11.474 16.8455 11.8918 16.8455 12.384V15.0026C16.8455 15.1329 16.8198 15.2621 16.7699 15.3825C16.72 15.503 16.6468 15.6124 16.5546 15.7045C16.4623 15.7967 16.3528 15.8698 16.2323 15.9196C16.1118 15.9694 15.9827 15.9949 15.8523 15.9948H15.8503Z" fill="#002347"/>
</svg>
