<svg width="20" height="20" viewBox="0 0 20 20" fill="none" xmlns="http://www.w3.org/2000/svg">
<path d="M16.4627 3.50083C15.6223 2.65193 14.6213 1.97886 13.5181 1.52088C12.4148 1.0629 11.2314 0.829172 10.0369 0.833333C5.03189 0.833333 0.952728 4.9125 0.952728 9.9175C0.952728 11.5217 1.37439 13.08 2.16273 14.455L0.879395 19.1667L5.69189 17.9017C7.02106 18.6258 8.51523 19.0108 10.0369 19.0108C15.0419 19.0108 19.1211 14.9317 19.1211 9.92667C19.1211 7.4975 18.1769 5.215 16.4627 3.50083ZM10.0369 17.4708C8.68023 17.4708 7.35106 17.1042 6.18689 16.4167L5.91189 16.2517L3.05189 17.0033L3.81273 14.2167L3.62939 13.9325C2.87566 12.7289 2.47544 11.3376 2.47439 9.9175C2.47439 5.75583 5.86606 2.36417 10.0277 2.36417C12.0444 2.36417 13.9419 3.1525 15.3627 4.5825C16.0663 5.2828 16.6238 6.11577 17.003 7.03314C17.3822 7.95051 17.5756 8.93402 17.5719 9.92667C17.5902 14.0883 14.1986 17.4708 10.0369 17.4708ZM14.1802 11.8242C13.9511 11.7142 12.8327 11.1642 12.6311 11.0817C12.4202 11.0083 12.2736 10.9717 12.1177 11.1917C11.9619 11.4208 11.5311 11.9342 11.4027 12.0808C11.2744 12.2367 11.1369 12.255 10.9077 12.1358C10.6786 12.0258 9.94523 11.7783 9.08356 11.0083C8.40523 10.4033 7.95606 9.66083 7.81856 9.43167C7.69023 9.2025 7.80023 9.08333 7.91939 8.96417C8.02023 8.86333 8.14856 8.69833 8.25856 8.57C8.36856 8.44167 8.41439 8.34083 8.48773 8.19417C8.56106 8.03833 8.52439 7.91 8.46939 7.8C8.41439 7.69 7.95606 6.57167 7.77273 6.11333C7.58939 5.67333 7.39689 5.72833 7.25939 5.71917H6.81939C6.66356 5.71917 6.42523 5.77417 6.21439 6.00333C6.01273 6.2325 5.42606 6.7825 5.42606 7.90083C5.42606 9.01917 6.24189 10.1008 6.35189 10.2475C6.46189 10.4033 7.95606 12.695 10.2294 13.6758C10.7702 13.9142 11.1919 14.0517 11.5219 14.1525C12.0627 14.3267 12.5577 14.2992 12.9519 14.2442C13.3919 14.18 14.2994 13.6942 14.4827 13.1625C14.6752 12.6308 14.6752 12.1817 14.6111 12.0808C14.5469 11.98 14.4094 11.9342 14.1802 11.8242Z" fill="#002347"/>
</svg>
