<svg width="21" height="14" viewBox="0 0 21 14" fill="none" xmlns="http://www.w3.org/2000/svg">
<path d="M21 6.93967C21 6.89227 21 6.83841 20.9977 6.77593C20.9953 6.60142 20.9906 6.40536 20.9859 6.19637C20.9672 5.59526 20.9344 4.99631 20.8828 4.43182C20.8125 3.65405 20.7094 3.00554 20.5687 2.51862C20.4204 2.01048 20.1295 1.54704 19.7252 1.17463C19.3209 0.80222 18.8173 0.533879 18.2648 0.39643C17.6016 0.232687 16.3031 0.131425 14.475 0.0689442C13.6055 0.0387811 12.675 0.0193904 11.7445 0.0086179C11.4187 0.00430889 11.1164 0.00215451 10.8445 0H10.1555C9.88359 0.00215451 9.58125 0.00430889 9.25547 0.0086179C8.325 0.0193904 7.39453 0.0387811 6.525 0.0689442C4.69687 0.133579 3.39609 0.234841 2.73516 0.39643C2.1825 0.533541 1.67876 0.801769 1.2744 1.17423C0.870044 1.5467 0.579282 2.01031 0.43125 2.51862C0.288281 3.00554 0.1875 3.65405 0.117188 4.43182C0.065625 4.99631 0.0328125 5.59526 0.0140625 6.19637C0.00703121 6.40536 0.00468746 6.60142 0.00234371 6.77593C0.00234371 6.83841 0 6.89227 0 6.93967V7.06033C0 7.10772 -3.57977e-08 7.16159 0.00234371 7.22407C0.00468746 7.39858 0.00937496 7.59464 0.0140625 7.80363C0.0328125 8.40474 0.065625 9.00369 0.117188 9.56817C0.1875 10.346 0.290625 10.9945 0.43125 11.4814C0.73125 12.5134 1.6125 13.3278 2.73516 13.6036C3.39609 13.7673 4.69687 13.8686 6.525 13.9311C7.39453 13.9612 8.325 13.9806 9.25547 13.9914C9.58125 13.9957 9.88359 13.9978 10.1555 14H10.8445C11.1164 13.9978 11.4187 13.9957 11.7445 13.9914C12.675 13.9806 13.6055 13.9612 14.475 13.9311C16.3031 13.8664 17.6039 13.7652 18.2648 13.6036C19.3875 13.3278 20.2687 12.5155 20.5687 11.4814C20.7117 10.9945 20.8125 10.346 20.8828 9.56817C20.9344 9.00369 20.9672 8.40474 20.9859 7.80363C20.993 7.59464 20.9953 7.39858 20.9977 7.22407C20.9977 7.16159 21 7.10772 21 7.06033V6.93967ZM19.3125 7.05171C19.3125 7.09695 19.3125 7.14651 19.3102 7.20468C19.3078 7.37273 19.3031 7.55802 19.2984 7.75839C19.282 8.33149 19.2492 8.90458 19.2 9.43675C19.1367 10.1305 19.0477 10.6993 18.9375 11.0806C18.7922 11.5783 18.3656 11.9726 17.8266 12.104C17.3344 12.2247 16.0945 12.3216 14.4094 12.3798C13.5562 12.41 12.6375 12.4294 11.7211 12.4401C11.4 12.4444 11.1023 12.4466 10.8352 12.4466H10.1648L9.27891 12.4401C8.3625 12.4294 7.44609 12.41 6.59063 12.3798C4.90547 12.3195 3.66328 12.2247 3.17344 12.104C2.63437 11.9705 2.20781 11.5783 2.0625 11.0806C1.95234 10.6993 1.86328 10.1305 1.8 9.43675C1.75078 8.90458 1.72031 8.33149 1.70156 7.75839C1.69453 7.55802 1.69219 7.37057 1.68984 7.20468C1.68984 7.14651 1.6875 7.0948 1.6875 7.05171V6.94829C1.6875 6.90305 1.6875 6.85349 1.68984 6.79532C1.69219 6.62727 1.69688 6.44198 1.70156 6.24161C1.71797 5.66851 1.75078 5.09541 1.8 4.56325C1.86328 3.8695 1.95234 3.30071 2.0625 2.91936C2.20781 2.42167 2.63437 2.02739 3.17344 1.89597C3.66562 1.77532 4.90547 1.67836 6.59063 1.62019C7.44375 1.59003 8.3625 1.57064 9.27891 1.55986C9.6 1.55556 9.89766 1.5534 10.1648 1.5534H10.8352L11.7211 1.55986C12.6375 1.57064 13.5539 1.59003 14.4094 1.62019C16.0945 1.68052 17.3367 1.77532 17.8266 1.89597C18.3656 2.02955 18.7922 2.42167 18.9375 2.91936C19.0477 3.30071 19.1367 3.8695 19.2 4.56325C19.2492 5.09541 19.2797 5.66851 19.2984 6.24161C19.3055 6.44198 19.3078 6.62942 19.3102 6.79532C19.3102 6.85349 19.3125 6.9052 19.3125 6.94829V7.05171ZM8.41406 9.88704L13.8516 6.97845L8.41406 4.11296V9.88704Z" fill="white"/>
</svg>
